<svg width="188" height="121" xmlns="http://www.w3.org/2000/svg" version="1.1">
 <!-- Generator: Sketch 52.6 (67491) - http://www.bohemiancoding.com/sketch -->

 <title>citi</title>
 <desc>Created with Sketch.</desc>
 <g>
  <title>Layer 1</title>
  <path recolor-stroke="true" recolor-fill="true" stroke-color-id="-1" fill-color-id="0" fill-rule="nonzero" fill="#003B70FF" id="Shape" d="m90.574,44.926l-15.256,0l0,74.605l15.256,0l0,-74.605zm13.988,0.123l0,13.988l12.844,0l0,42.089c0,5.807 1.594,10.471 4.662,13.988c3.068,3.641 7.158,5.439 12.312,5.562c5.111,0.123 9.652,-1.023 13.498,-3.395l0.244,-0.123l0,-0.246l3.641,-14.193l-0.9,0.572c-4.09,2.496 -7.852,3.723 -11.289,3.723c-4.744,0 -7.156,-2.822 -7.156,-8.385l0,-39.591l15.582,0l0,-13.989l-15.582,0l0,-23.314l-15.012,8.058l0,15.256l-12.844,0zm73.829,-0.123l-15.379,0l0,74.605l15.379,0l0,-74.605zm-111.826,11.74l-0.328,-0.246c-7.035,-8.548 -15.829,-12.721 -26.382,-12.721c-11.043,0 -20.124,3.395 -27.405,10.103c-7.73,7.076 -11.616,16.606 -11.616,28.549c0,11.943 3.886,21.393 11.616,28.551c7.158,6.707 16.361,10.021 27.405,10.021c10.553,0 19.428,-4.213 26.382,-12.639l0.328,-0.246l-8.631,-10.43l-0.327,0.326c-5.604,5.562 -11.616,8.426 -18.079,8.426c-6.749,0 -12.312,-2.291 -16.729,-6.83c-4.459,-4.459 -6.585,-10.227 -6.585,-17.18c0,-6.953 2.126,-12.762 6.585,-17.301c4.417,-4.418 9.98,-6.708 16.729,-6.708c6.462,0 12.475,2.863 18.079,8.425l0.327,0.328l8.631,-10.428z"/>
  <path recolor-stroke="true" recolor-fill="true" stroke-color-id="-1" fill-color-id="1" fill="#D9261CFF" id="Path" d="m82.843,32.656c6.013,-6.135 12.721,-10.798 20.37,-14.111c7.363,-3.19 15.215,-4.745 23.314,-4.745c8.059,0 15.91,1.554 23.438,4.745c7.484,3.313 14.191,7.976 20.205,14.111l0.246,0.205l17.506,0l-0.654,-1.022c-6.953,-9.776 -15.953,-17.506 -26.75,-23.151c-10.799,-5.604 -22.047,-8.344 -33.99,-8.344c-11.82,0 -23.232,2.74 -34.031,8.344c-10.799,5.644 -19.797,13.374 -26.71,23.15l-0.695,1.022l17.629,0l0.122,-0.204z"/>
  <path recolor-stroke="true" recolor-fill="true" stroke-color-id="-1" fill-color-id="0" fill-rule="nonzero" fill="#ffffff" id="Shape" d="m90.574,44.926l-15.256,0l0,74.605l15.256,0l0,-74.605zm13.988,0.123l0,13.988l12.844,0l0,42.089c0,5.807 1.594,10.471 4.662,13.988c3.068,3.641 7.158,5.439 12.312,5.562c5.111,0.123 9.652,-1.023 13.498,-3.395l0.244,-0.123l0,-0.246l3.641,-14.193l-0.9,0.572c-4.09,2.496 -7.852,3.723 -11.289,3.723c-4.744,0 -7.156,-2.822 -7.156,-8.385l0,-39.591l15.582,0l0,-13.989l-15.582,0l0,-23.314l-15.012,8.058l0,15.256l-12.844,0zm73.829,-0.123l-15.379,0l0,74.605l15.379,0l0,-74.605zm-111.826,11.74l-0.328,-0.246c-7.035,-8.548 -15.829,-12.721 -26.382,-12.721c-11.043,0 -20.124,3.395 -27.405,10.103c-7.73,7.076 -11.616,16.606 -11.616,28.549c0,11.943 3.886,21.393 11.616,28.551c7.158,6.707 16.361,10.021 27.405,10.021c10.553,0 19.428,-4.213 26.382,-12.639l0.328,-0.246l-8.631,-10.43l-0.327,0.326c-5.604,5.562 -11.616,8.426 -18.079,8.426c-6.749,0 -12.312,-2.291 -16.729,-6.83c-4.459,-4.459 -6.585,-10.227 -6.585,-17.18c0,-6.953 2.126,-12.762 6.585,-17.301c4.417,-4.418 9.98,-6.708 16.729,-6.708c6.462,0 12.475,2.863 18.079,8.425l0.327,0.328l8.631,-10.428z"/>
  <path recolor-stroke="true" recolor-fill="true" stroke-color-id="-1" fill-color-id="2" fill="#D9261CFF" id="Path" d="m82.843,32.656c6.013,-6.135 12.721,-10.798 20.37,-14.111c7.363,-3.19 15.215,-4.745 23.314,-4.745c8.059,0 15.91,1.554 23.438,4.745c7.484,3.313 14.191,7.976 20.205,14.111l0.246,0.205l17.506,0l-0.654,-1.022c-6.953,-9.776 -15.953,-17.506 -26.75,-23.151c-10.799,-5.604 -22.047,-8.344 -33.99,-8.344c-11.82,0 -23.232,2.74 -34.031,8.344c-10.799,5.644 -19.797,13.374 -26.71,23.15l-0.695,1.022l17.629,0l0.122,-0.204z"/>
 </g>
</svg>