<svg xmlns="http://www.w3.org/2000/svg" xmlns:xlink="http://www.w3.org/1999/xlink" viewBox="0 0 188 121" version="1.1" width="100px" height="65px">
    <!-- Generator: Sketch 52.6 (67491) - http://www.bohemiancoding.com/sketch -->
    <title>citi</title>
    <desc>Created with Sketch.</desc>
    <g id="citi" stroke="none" stroke-width="1" fill="none" fill-rule="evenodd" fill-color-id="-1" stroke-color-id="-1" recolor-fill="true" recolor-stroke="true">
        <g fill-color-id="-1" stroke-color-id="-1" recolor-fill="true" recolor-stroke="true">
            <path d="M90.574,44.926 L75.318,44.926 L75.318,119.531 L90.574,119.531 L90.574,44.926 Z M104.562,45.049 L104.562,59.037 L117.406,59.037 L117.406,101.126 C117.406,106.933 119,111.597 122.068,115.114 C125.136,118.755 129.226,120.553 134.38,120.676 C139.491,120.799 144.032,119.653 147.878,117.281 L148.122,117.158 L148.122,116.912 L151.763,102.719 L150.863,103.291 C146.773,105.787 143.011,107.014 139.574,107.014 C134.83,107.014 132.418,104.192 132.418,98.629 L132.418,59.038 L148,59.038 L148,45.049 L132.418,45.049 L132.418,21.735 L117.406,29.793 L117.406,45.049 L104.562,45.049 Z M178.391,44.926 L163.012,44.926 L163.012,119.531 L178.391,119.531 L178.391,44.926 Z M66.565,56.666 L66.237,56.42 C59.202,47.872 50.408,43.699 39.855,43.699 C28.812,43.699 19.731,47.094 12.45,53.802 C4.72,60.878 0.834,70.408 0.834,82.351 C0.834,94.294 4.72,103.744 12.45,110.902 C19.608,117.609 28.811,120.923 39.855,120.923 C50.408,120.923 59.283,116.71 66.237,108.284 L66.565,108.038 L57.934,97.608 L57.607,97.934 C52.003,103.496 45.991,106.36 39.528,106.36 C32.779,106.36 27.216,104.069 22.799,99.53 C18.34,95.071 16.214,89.303 16.214,82.35 C16.214,75.397 18.34,69.588 22.799,65.049 C27.216,60.631 32.779,58.341 39.528,58.341 C45.99,58.341 52.003,61.204 57.607,66.766 L57.934,67.094 L66.565,56.666 Z" id="Shape" fill="#003B70FF" fill-rule="nonzero" fill-color-id="0" stroke-color-id="-1" recolor-fill="true" recolor-stroke="true"/>
            <path d="M82.843,32.656 C88.856,26.521 95.564,21.858 103.213,18.545 C110.576,15.355 118.428,13.8 126.527,13.8 C134.586,13.8 142.437,15.354 149.965,18.545 C157.449,21.858 164.156,26.521 170.17,32.656 L170.416,32.861 L187.922,32.861 L187.268,31.839 C180.315,22.063 171.315,14.333 160.518,8.688 C149.719,3.084 138.471,0.344 126.528,0.344 C114.708,0.344 103.296,3.084 92.497,8.688 C81.698,14.332 72.7,22.062 65.787,31.838 L65.092,32.86 L82.721,32.86 L82.843,32.656 Z" id="Path" fill="#D9261CFF" fill-color-id="1" stroke-color-id="-1" recolor-fill="true" recolor-stroke="true"/>
            <path d="M90.574,44.926 L75.318,44.926 L75.318,119.531 L90.574,119.531 L90.574,44.926 Z M104.562,45.049 L104.562,59.037 L117.406,59.037 L117.406,101.126 C117.406,106.933 119,111.597 122.068,115.114 C125.136,118.755 129.226,120.553 134.38,120.676 C139.491,120.799 144.032,119.653 147.878,117.281 L148.122,117.158 L148.122,116.912 L151.763,102.719 L150.863,103.291 C146.773,105.787 143.011,107.014 139.574,107.014 C134.83,107.014 132.418,104.192 132.418,98.629 L132.418,59.038 L148,59.038 L148,45.049 L132.418,45.049 L132.418,21.735 L117.406,29.793 L117.406,45.049 L104.562,45.049 Z M178.391,44.926 L163.012,44.926 L163.012,119.531 L178.391,119.531 L178.391,44.926 Z M66.565,56.666 L66.237,56.42 C59.202,47.872 50.408,43.699 39.855,43.699 C28.812,43.699 19.731,47.094 12.45,53.802 C4.72,60.878 0.834,70.408 0.834,82.351 C0.834,94.294 4.72,103.744 12.45,110.902 C19.608,117.609 28.811,120.923 39.855,120.923 C50.408,120.923 59.283,116.71 66.237,108.284 L66.565,108.038 L57.934,97.608 L57.607,97.934 C52.003,103.496 45.991,106.36 39.528,106.36 C32.779,106.36 27.216,104.069 22.799,99.53 C18.34,95.071 16.214,89.303 16.214,82.35 C16.214,75.397 18.34,69.588 22.799,65.049 C27.216,60.631 32.779,58.341 39.528,58.341 C45.99,58.341 52.003,61.204 57.607,66.766 L57.934,67.094 L66.565,56.666 Z" id="Shape" fill="#003B70FF" fill-rule="nonzero" fill-color-id="0" stroke-color-id="-1" recolor-fill="true" recolor-stroke="true"/>
            <path d="M82.843,32.656 C88.856,26.521 95.564,21.858 103.213,18.545 C110.576,15.355 118.428,13.8 126.527,13.8 C134.586,13.8 142.437,15.354 149.965,18.545 C157.449,21.858 164.156,26.521 170.17,32.656 L170.416,32.861 L187.922,32.861 L187.268,31.839 C180.315,22.063 171.315,14.333 160.518,8.688 C149.719,3.084 138.471,0.344 126.528,0.344 C114.708,0.344 103.296,3.084 92.497,8.688 C81.698,14.332 72.7,22.062 65.787,31.838 L65.092,32.86 L82.721,32.86 L82.843,32.656 Z" id="Path" fill="#D9261CFF" fill-color-id="2" stroke-color-id="-1" recolor-fill="true" recolor-stroke="true"/>
        </g>
    </g>
</svg>