<?xml version="1.0" standalone="no"?><!DOCTYPE svg PUBLIC "-//W3C//DTD SVG 1.1//EN" "http://www.w3.org/Graphics/SVG/1.1/DTD/svg11.dtd"><svg t="1677759682961" class="icon" viewBox="0 0 1024 1024" version="1.1" xmlns="http://www.w3.org/2000/svg" p-id="4793" xmlns:xlink="http://www.w3.org/1999/xlink" width="20" height="20"><path d="M923.690667 434.090667a89.301333 89.301333 0 0 0-72.96-61.269334l-178.346667-25.6-79.658667-158.976a90.496 90.496 0 0 0-161.450666 0L351.616 347.306667l-178.346667 25.6a89.216 89.216 0 0 0-72.96 61.226666 88.149333 88.149333 0 0 0 23.125334 91.178667l128.768 123.733333L221.866667 823.466667a88.32 88.32 0 0 0 35.157333 86.912 90.154667 90.154667 0 0 0 95.402667 7.381333L512 835.029333l159.616 82.688a90.368 90.368 0 0 0 95.402667-7.381333A88.362667 88.362667 0 0 0 802.133333 823.466667l-30.378666-174.549334 128.768-123.733333a88.149333 88.149333 0 0 0 23.168-91.093333z m-67.456 45.013333L715.178667 614.4a32.042667 32.042667 0 0 0-9.344 28.544l33.28 191.317333a24.277333 24.277333 0 0 1-9.941334 24.277334 26.496 26.496 0 0 1-28.117333 2.176l-174.336-90.154667a32 32 0 0 0-29.44 0l-174.336 90.325333a26.325333 26.325333 0 0 1-28.117333-2.176 24.277333 24.277333 0 0 1-9.941334-24.277333l33.28-191.317333a32.042667 32.042667 0 0 0-9.344-28.544l-141.056-135.466667a24.106667 24.106667 0 0 1-6.528-25.6 25.002667 25.002667 0 0 1 21.333334-17.450667l194.688-27.733333a32 32 0 0 0 24.064-17.365333l87.168-174.037334a26.496 26.496 0 0 1 46.933333 0l87.168 174.037334a32 32 0 0 0 24.064 17.365333l194.901333 27.861333a25.088 25.088 0 0 1 21.333334 17.493334 24.106667 24.106667 0 0 1-6.656 25.429333z" fill="#ffb74f" p-id="4794"></path></svg>